<?xml version="1.0" encoding="UTF-8"?>
<svg version="1.1" xmlns="http://www.w3.org/2000/svg" width="512" height="512">
<path d="M0 0 C1.26582983 -0.00382555 2.53165966 -0.00765109 3.83584797 -0.01159257 C7.32879651 -0.02183331 10.82164196 -0.01970083 14.3145988 -0.01541197 C18.08974854 -0.01293759 21.86487392 -0.02196773 25.64001465 -0.02944946 C33.02796076 -0.04217868 40.41587049 -0.04399238 47.80382572 -0.0416492 C53.81086275 -0.03986391 59.81788876 -0.0416202 65.82492447 -0.04587364 C66.68089109 -0.04646883 67.53685772 -0.04706402 68.41876272 -0.04767724 C70.15783587 -0.04888904 71.89690902 -0.05010317 73.63598217 -0.05131962 C89.93370328 -0.06218828 106.23140368 -0.06003584 122.52912594 -0.05393478 C137.42649214 -0.04876606 152.32379295 -0.06002105 167.22114621 -0.07903299 C182.53202846 -0.09842231 197.84287978 -0.10666548 213.15377438 -0.10290974 C221.74395534 -0.10099938 230.33408064 -0.1034692 238.92425156 -0.11762428 C246.23708719 -0.12955298 253.5498329 -0.13092628 260.86266981 -0.11883412 C264.59064409 -0.1129559 268.31845402 -0.11181654 272.04641724 -0.12383652 C276.09503916 -0.13673825 280.14327193 -0.12620585 284.19189453 -0.11352539 C285.35990817 -0.12089968 286.52792181 -0.12827396 287.7313298 -0.13587171 C305.07493713 -0.02185327 321.47566613 7.06024316 333.66824341 19.40522766 C344.50675091 31.51982855 350.56026275 46.19260595 350.48362732 62.39323425 C350.48745287 63.26704306 350.49127841 64.14085186 350.49521989 65.04113972 C350.50547044 67.94495436 350.50157294 70.84856833 350.49758911 73.75239563 C350.50193998 75.84422487 350.50712438 77.93605251 350.51307678 80.02787781 C350.52643757 85.69321006 350.5270487 91.35847547 350.52451348 97.0238204 C350.5234418 101.76027623 350.52833219 106.49671864 350.5331189 111.23317158 C350.54420398 122.41081381 350.5446571 133.58842244 350.53860474 144.7660675 C350.53256496 156.2819029 350.54487842 167.79761611 350.56617481 179.31343067 C350.5838103 189.21519621 350.58978909 199.11692292 350.58653706 209.01870358 C350.58472719 214.92611142 350.58733092 220.83343209 350.6012516 226.74082565 C350.61385698 232.29769586 350.61186012 237.85437604 350.59884071 243.41124344 C350.5964813 245.44490372 350.59918671 247.47857749 350.60746384 249.51222229 C350.68328972 269.59812489 346.7835061 287.32521466 332.50222778 302.29975891 C319.61230002 315.03055176 303.53372705 320.54711892 285.75422668 320.46191406 C284.24590967 320.44833488 282.73759365 320.43464405 281.22927856 320.42085266 C279.62020776 320.4137699 278.01113214 320.40771995 276.40205383 320.40261841 C272.95141029 320.39044598 269.50085053 320.37290476 266.05025101 320.35169983 C260.58569074 320.32007473 255.12125831 320.31235535 249.65661621 320.31001282 C248.73187551 320.30949921 247.80713481 320.3089856 246.85437167 320.30845642 C244.96425249 320.30741508 243.0741333 320.30641081 241.18401408 320.30544281 C228.47377176 320.29756289 215.76397383 320.27229226 203.0539856 320.18891907 C194.46324691 320.13275178 185.87321843 320.11222928 177.28230894 320.13211918 C172.74362955 320.14117604 168.20661648 320.13220141 163.66820145 320.07933044 C159.39758988 320.02979527 155.12946384 320.02732461 150.85871315 320.05980492 C149.29908794 320.06345573 147.73930967 320.05024774 146.18000984 320.01818275 C138.05739929 319.86090981 132.32763567 320.36244321 126.05480957 326.05024719 C124.43544285 327.77891705 122.82459472 329.51561158 121.22293091 331.26069641 C119.39372277 332.81145933 117.54219973 334.33665204 115.66043091 335.82319641 C112.08464622 338.70918434 108.61891772 341.66514445 105.22293091 344.76069641 C100.923013 348.67960893 96.46373544 352.3524051 91.94168091 356.01069641 C89.30145361 358.1957121 86.75563371 360.45241032 84.22293091 362.76069641 C79.923013 366.67960893 75.46373544 370.3524051 70.94168091 374.01069641 C68.30145361 376.1957121 65.75563371 378.45241032 63.22293091 380.76069641 C58.923013 384.67960893 54.46373544 388.3524051 49.94168091 392.01069641 C47.30145361 394.1957121 44.75563371 396.45241032 42.22293091 398.76069641 C37.04761564 403.46627765 31.69059384 407.90051863 26.22293091 412.26069641 C25.25355591 413.10632141 24.28418091 413.95194641 23.28543091 414.82319641 C18.32874658 417.14980334 13.58013767 417.20031121 8.22293091 416.26069641 C3.5799901 413.99762778 0.08148303 411.14552909 -1.77706909 406.26069641 C-1.95795237 403.4434525 -2.02975573 400.72780674 -2.00411987 397.9120636 C-2.00441193 397.07267242 -2.00470398 396.23328125 -2.00500488 395.36845398 C-2.00361318 392.5980541 -1.98805948 389.82792422 -1.97238159 387.05757141 C-1.96865089 385.13514859 -1.96580419 383.21272387 -1.96380615 381.29029846 C-1.95617417 376.23338053 -1.93652936 371.17657769 -1.91439819 366.1197052 C-1.89393043 360.95838477 -1.88480244 355.79704573 -1.87472534 350.63569641 C-1.85328311 340.51064588 -1.81915235 330.38568072 -1.77706909 320.26069641 C-2.51094849 320.27229797 -3.24482788 320.28389954 -4.00094604 320.29585266 C-5.46213867 320.30938782 -5.46213867 320.30938782 -6.95285034 320.32319641 C-7.91360474 320.33479797 -8.87435913 320.34639954 -9.86422729 320.35835266 C-24.32619672 319.87349911 -39.2483805 311.21484126 -49.22238159 301.11616516 C-60.06088909 289.00156427 -66.11440093 274.32878687 -66.0377655 258.12815857 C-66.04159105 257.25434976 -66.0454166 256.38054096 -66.04935807 255.4802531 C-66.05960863 252.57643846 -66.05571112 249.6728245 -66.05172729 246.76899719 C-66.05607817 244.67716795 -66.06126257 242.58534031 -66.06721497 240.49351501 C-66.08057576 234.82818277 -66.08118688 229.16291735 -66.07865167 223.49757242 C-66.07757998 218.7611166 -66.08247037 214.02467418 -66.08725709 209.28822124 C-66.09834216 198.11057901 -66.09879529 186.93297038 -66.09274292 175.75532532 C-66.08670314 164.23948992 -66.09901661 152.72377671 -66.12031299 141.20796216 C-66.13794848 131.30619662 -66.14392727 121.4044699 -66.14067525 111.50268924 C-66.13886537 105.5952814 -66.14146911 99.68796073 -66.15538979 93.78056717 C-66.16799517 88.22369697 -66.1659983 82.66701678 -66.1529789 77.11014938 C-66.15061949 75.0764891 -66.1533249 73.04281534 -66.16160202 71.00917053 C-66.2374279 50.92326793 -62.33764428 33.19617816 -48.05636597 18.22163391 C-34.64780147 4.97860724 -18.34988616 -0.05914851 0 0 Z M-25.77706909 43.26069641 C-32.44583383 52.18317111 -33.93442281 61.3350089 -33.91078186 72.32424927 C-33.91304742 73.10721664 -33.91531297 73.89018401 -33.91764718 74.69687766 C-33.9239477 77.30516127 -33.92316037 79.91339239 -33.92233276 82.52168274 C-33.92532672 84.39809231 -33.92872979 86.27450127 -33.93251038 88.15090942 C-33.94133047 93.23778428 -33.94368765 98.3246423 -33.94432616 103.41152406 C-33.94503779 106.59248354 -33.94717424 109.77343877 -33.94982338 112.9543972 C-33.95907016 124.05983628 -33.96315909 135.16526337 -33.96237183 146.27070618 C-33.96177119 156.60952072 -33.97232198 166.94828306 -33.98811549 177.2870844 C-34.0012067 186.17478423 -34.00655506 195.06246703 -34.00591642 203.95017642 C-34.0056619 209.25338146 -34.00848766 214.55654009 -34.01909447 219.85973549 C-34.02880207 224.84938479 -34.02883639 229.83894356 -34.02157784 234.82859612 C-34.02053531 236.65465554 -34.02287508 238.48072067 -34.02893829 240.30677032 C-34.07556765 255.32895104 -33.8724677 268.91312966 -22.77706909 280.26069641 C-14.69986273 286.29769744 -6.42434324 288.19514699 3.50808716 288.43647766 C4.45103638 288.46032532 5.3939856 288.48417297 6.36550903 288.50874329 C8.31580511 288.5517933 10.26639778 288.58299954 12.21707153 288.60249329 C18.00151705 288.77274048 21.75408182 289.21014833 26.22293091 293.26069641 C29.10869266 297.20592285 29.60893803 300.03704123 29.65530396 304.88691711 C29.67059143 305.8536158 29.67059143 305.8536158 29.68618774 306.83984375 C29.71621673 308.95547797 29.7255676 311.0706587 29.73464966 313.18647766 C29.75150395 314.65908297 29.76965521 316.13167397 29.78904724 317.60424805 C29.83647241 321.46915715 29.86632986 325.33400818 29.89248657 329.19911194 C29.92233009 333.14749112 29.96884733 337.09567035 30.01394653 341.04389954 C30.09989437 348.78273246 30.16727718 356.52158004 30.22293091 364.26069641 C31.48289666 363.32472253 32.7415997 362.38704873 33.99978638 361.44868469 C35.05140457 360.66571518 35.05140457 360.66571518 36.12426758 359.8669281 C39.31743083 357.42301062 42.33142488 354.7922668 45.34793091 352.13569641 C46.66143146 350.98821574 47.97524066 349.8410883 49.28933716 348.69429016 C49.9456311 348.12049622 50.60192505 347.54670227 51.27810669 346.95552063 C54.26550494 344.35214143 57.27424611 341.77398821 60.28543091 339.19819641 C61.14515503 338.46222229 61.14515503 338.46222229 62.02224731 337.71138 C63.17773048 336.72231242 64.3333291 335.73337971 65.48904419 334.74458313 C68.40187137 332.25174117 71.31227151 329.75606875 74.22293091 327.26069641 C75.38958609 326.26068301 76.55625275 325.26068301 77.72293091 324.26069641 C78.30043091 323.76569641 78.87793091 323.27069641 79.47293091 322.76069641 C81.22293091 321.26069641 82.97293091 319.76069641 84.72293091 318.26069641 C85.30083374 317.76529358 85.87873657 317.26989075 86.47415161 316.75947571 C87.63651936 315.7632764 88.7991157 314.76734375 89.96194458 313.77168274 C92.94635076 311.21571227 95.92619112 308.65470247 98.89871216 306.08491516 C118.52371747 289.14199391 118.52371747 289.14199391 126.69815063 289.11593628 C127.37067352 289.11240943 128.0431964 289.10888259 128.73609877 289.10524887 C131.00059655 289.0945333 133.26505231 289.09087585 135.52957153 289.08711243 C137.14909036 289.080809 138.76860745 289.07404344 140.38812256 289.06684875 C143.88249857 289.05215915 147.37686779 289.04044204 150.8712616 289.03090096 C156.40221295 289.01545982 161.93310687 288.99150793 167.46401978 288.96600342 C183.19449225 288.89477986 198.92499832 288.8351328 214.6555481 288.78388977 C223.33837601 288.75552947 232.02114745 288.72011245 240.70391607 288.67723602 C246.19555871 288.65054243 251.68713744 288.63258819 257.17883205 288.62119877 C260.6078626 288.61203066 264.03681613 288.59464829 267.46580124 288.57501984 C269.04834651 288.56758656 270.63091161 288.56346584 272.21347427 288.56302452 C286.65796908 288.55574826 299.40825864 287.83504263 310.22293091 277.26069641 C316.89169564 268.33822171 318.38028462 259.18638392 318.35664368 248.19714355 C318.35890923 247.41417619 318.36117479 246.63120882 318.363509 245.82451516 C318.36980952 243.21623155 318.36902218 240.60800043 318.36819458 237.99971008 C318.37118853 236.12330051 318.37459161 234.24689155 318.37837219 232.3704834 C318.38719228 227.28360855 318.38954947 222.19675053 318.39018798 217.10986876 C318.3908996 213.92890928 318.39303606 210.74795405 318.3956852 207.56699562 C318.40493198 196.46155654 318.40902091 185.35612945 318.40823364 174.25068665 C318.40763301 163.9118721 318.4181838 153.57310976 318.43397731 143.23430842 C318.44706852 134.34660859 318.45241688 125.4589258 318.45177823 116.5712164 C318.45152371 111.26801137 318.45434948 105.96485274 318.46495628 100.66165733 C318.47466388 95.67200803 318.47469821 90.68244927 318.46743965 85.69279671 C318.46639712 83.86673729 318.4687369 82.04067215 318.47480011 80.2146225 C318.52142946 65.19244178 318.31832951 51.60826317 307.22293091 40.26069641 C297.07696023 32.67747609 286.74907854 32.1096558 274.5148468 32.12698364 C272.75236421 32.12358531 272.75236421 32.12358531 270.95427591 32.12011832 C267.70573357 32.11489481 264.45722617 32.11413144 261.20868099 32.1153127 C257.70005517 32.11551723 254.19143753 32.10999291 250.68281555 32.10525513 C243.81364005 32.09695958 236.94447312 32.09420078 230.07529303 32.09364275 C224.49011327 32.09316708 218.90493633 32.09110981 213.31975746 32.08794212 C197.47456152 32.07913866 181.62937234 32.07452228 165.78417393 32.0752726 C164.93050426 32.07531255 164.07683459 32.07535251 163.19729614 32.07539368 C162.3425807 32.07543456 161.48786526 32.07547544 160.60724936 32.07551756 C146.75667215 32.07592397 132.90612214 32.06635473 119.0555528 32.05225531 C104.8239048 32.03788261 90.59227004 32.03098561 76.3606146 32.03184909 C68.37463152 32.03218074 60.38867695 32.02944752 52.40270042 32.01867104 C45.60327177 32.00955429 38.80388456 32.00740044 32.00445243 32.01418046 C28.53790478 32.01743969 25.07143658 32.01752398 21.60489655 32.00882721 C17.84051559 32.0011052 14.07634245 32.00575374 10.31196594 32.01345825 C9.22527609 32.00831469 8.13858623 32.00317113 7.01896638 31.9978717 C-5.60401217 32.05485034 -16.49026352 34.18026429 -25.77706909 43.26069641 Z " fill="#000000" transform="translate(65.77706909179688,-0.2606964111328125)"/>
<path d="M0 0 C7.25184789 6.32946373 12.00737654 13.12357435 16.375 21.625 C16.71297607 22.27734619 17.05095215 22.92969238 17.39916992 23.60180664 C21.2401959 31.41322209 22.36405469 39.12015103 22.32319641 47.75753784 C22.32702196 48.63134665 22.33084751 49.50515545 22.33478898 50.40544331 C22.34503953 53.30925795 22.34114203 56.21287191 22.3371582 59.11669922 C22.34150907 61.20852846 22.34669347 63.3003561 22.35264587 65.3921814 C22.36600667 71.05751365 22.36661779 76.72277906 22.36408257 82.38812399 C22.36301089 87.12457981 22.36790128 91.86102223 22.372688 96.59747517 C22.38377307 107.7751174 22.38422619 118.95272603 22.37817383 130.13037109 C22.37213405 141.64620649 22.38444752 153.1619197 22.4057439 164.67773426 C22.42337939 174.57949979 22.42935818 184.48122651 22.42610615 194.38300717 C22.42429628 200.29041501 22.42690001 206.19773568 22.44082069 212.10512924 C22.45342608 217.66199945 22.45142921 223.21867963 22.43840981 228.77554703 C22.4360504 230.80920731 22.43875581 232.84288107 22.44703293 234.87652588 C22.52285881 254.96242848 18.62307519 272.68951825 4.34179688 287.6640625 C-5.38853084 297.27426271 -19.84018205 305.36318099 -33.78320312 305.69213867 C-34.75193359 305.6841626 -35.72066406 305.67618652 -36.71875 305.66796875 C-37.69908203 305.66176514 -38.67941406 305.65556152 -39.68945312 305.64916992 C-40.43130859 305.64119385 -41.17316406 305.63321777 -41.9375 305.625 C-41.92861755 306.68909088 -41.91973511 307.75318176 -41.9105835 308.84951782 C-41.82945052 318.88399945 -41.76951192 328.91841442 -41.73025131 338.9531498 C-41.70938834 344.11197214 -41.68109403 349.27052942 -41.63574219 354.42919922 C-41.59223876 359.40885392 -41.56835319 364.38825386 -41.55799103 369.36808395 C-41.55060776 371.26668686 -41.53618986 373.16527602 -41.51457977 375.06377029 C-41.48548592 377.72592403 -41.48154648 380.38702893 -41.48339844 383.04931641 C-41.46182678 384.22320419 -41.46182678 384.22320419 -41.43981934 385.42080688 C-41.47882131 390.61192729 -42.56035232 393.47876005 -45.9375 397.625 C-50.58398254 402.03915841 -54.82543066 402.09258261 -60.9375 402.15625 C-67.39540745 401.01266222 -72.15763632 395.850165 -76.9375 391.625 C-78.26921594 390.45927511 -79.60125453 389.29391872 -80.93359375 388.12890625 C-81.60245605 387.54254395 -82.27131836 386.95618164 -82.96044922 386.35205078 C-85.95620256 383.73511337 -88.97671431 381.1475291 -92 378.5625 C-93.15755208 377.57161458 -94.31510417 376.58072917 -95.47265625 375.58984375 C-96.04387207 375.10112793 -96.61508789 374.61241211 -97.20361328 374.10888672 C-100.11644046 371.61604476 -103.02684061 369.12037234 -105.9375 366.625 C-107.10415518 365.6249866 -108.27082184 364.62498659 -109.4375 363.625 C-128.18619792 347.5546875 -146.93489583 331.484375 -165.68359375 315.4140625 C-166.19534653 314.98968116 -166.7070993 314.56529982 -167.23435974 314.12805843 C-168.9375 312.625 -168.9375 312.625 -170.30421448 311.06451511 C-173.9414474 307.20291446 -176.83932628 306.18955871 -182.12304688 305.89915466 C-184.63405921 305.87931506 -187.14546256 305.89237098 -189.65625 305.93139648 C-191.04492436 305.93141196 -192.43360098 305.92871479 -193.82226562 305.92352295 C-196.8023336 305.91790817 -199.78152923 305.93083876 -202.76147461 305.95825005 C-207.47722066 306.00100016 -212.19230965 305.99895206 -216.90820312 305.99049377 C-226.0675542 305.97999992 -235.22648843 306.01265278 -244.38574219 306.05178833 C-256.04415807 306.10072758 -267.70236662 306.13672375 -279.36089325 306.12045342 C-284.04505899 306.11549091 -288.72825291 306.13539 -293.4122467 306.17479122 C-296.32983441 306.19447374 -299.24715894 306.19352427 -302.16479492 306.18717957 C-304.15422302 306.18914523 -306.14357769 306.21611029 -308.1328125 306.24391174 C-315.43683941 306.20344741 -319.56870781 305.73937333 -324.9375 300.625 C-328.50524315 295.67619499 -328.76963877 290.52477035 -327.9375 284.625 C-326.1310297 279.24641329 -322.80264163 276.36603633 -317.9375 273.625 C-314.81089783 273.12163544 -314.81089783 273.12163544 -311.40991211 273.11706543 C-309.46687698 273.10014648 -309.46687698 273.10014648 -307.48458862 273.08288574 C-306.06133808 273.09066187 -304.63808975 273.09885447 -303.21484375 273.10742188 C-301.7064649 273.10199797 -300.19809134 273.0948738 -298.68972778 273.08618164 C-294.60290107 273.06797701 -290.51647915 273.07500382 -286.42964554 273.08769798 C-282.14831723 273.09784055 -277.86702306 273.08842882 -273.58569336 273.08215332 C-266.39658398 273.07488057 -259.20763908 273.08445481 -252.01855469 273.10351562 C-243.71257438 273.12528372 -235.40698684 273.11823208 -227.10101604 273.09621 C-219.96367123 273.07804536 -212.82644452 273.07550287 -205.68908405 273.08596468 C-201.42887753 273.09219378 -197.16885549 273.09305137 -192.90866089 273.07981873 C-188.90299003 273.06824527 -184.89782449 273.07631281 -180.8922081 273.09939575 C-179.42407952 273.10467492 -177.95590826 273.10318257 -176.48779678 273.09434509 C-174.48024283 273.08337655 -172.4725957 273.09958509 -170.46508789 273.11706543 C-168.78159996 273.11932758 -168.78159996 273.11932758 -167.06410217 273.12163544 C-161.96673771 273.94228114 -158.35641714 277.09615673 -154.5625 280.4375 C-153.97718506 280.94933838 -153.39187012 281.46117676 -152.78881836 281.98852539 C-152.1778833 282.52856201 -151.56694824 283.06859863 -150.9375 283.625 C-149.60578406 284.79072489 -148.27374547 285.95608128 -146.94140625 287.12109375 C-146.27254395 287.70745605 -145.60368164 288.29381836 -144.91455078 288.89794922 C-141.91879744 291.51488663 -138.89828569 294.1024709 -135.875 296.6875 C-134.71744792 297.67838542 -133.55989583 298.66927083 -132.40234375 299.66015625 C-131.83112793 300.14887207 -131.25991211 300.63758789 -130.67138672 301.14111328 C-127.75855954 303.63395524 -124.84815939 306.12962766 -121.9375 308.625 C-120.77084482 309.6250134 -119.60417816 310.62501341 -118.4375 311.625 C-111.4375 317.625 -111.4375 317.625 -109.68701172 319.12548828 C-108.52206459 320.12396795 -107.35702574 321.12234061 -106.19189453 322.12060547 C-103.24815191 324.64299047 -100.30610066 327.16730145 -97.3671875 329.6953125 C-96.77164063 330.20707031 -96.17609375 330.71882813 -95.5625 331.24609375 C-94.46031374 332.19328507 -93.35867315 333.14111208 -92.2578125 334.08984375 C-88.43715278 337.37144999 -84.57451049 340.6016518 -80.70361328 343.82373047 C-80.14815323 344.28633774 -79.59269318 344.74894501 -79.020401 345.22557068 C-77.65957151 346.35887892 -76.29855466 347.49196218 -74.9375 348.625 C-74.93385437 347.82399872 -74.93020874 347.02299744 -74.92645264 346.19772339 C-74.88852723 338.63522363 -74.83162363 331.07321403 -74.75359726 323.5110302 C-74.71415048 319.62354766 -74.68194857 315.73629068 -74.66650391 311.84863281 C-74.65131841 308.09415424 -74.61684059 304.34029586 -74.56919098 300.5860939 C-74.55439645 299.15648933 -74.54646009 297.7267962 -74.54561615 296.29711533 C-74.54323932 294.28895427 -74.51383413 292.28088103 -74.48339844 290.27294922 C-74.47451599 289.13155487 -74.46563354 287.99016052 -74.45648193 286.81417847 C-73.63490559 281.76553724 -71.08519623 278.66488234 -67.359375 275.2890625 C-62.60928069 272.97908513 -58.40552682 273.02820555 -53.1875 273 C-40.65175641 272.82780572 -28.3750316 271.80746318 -18.9375 262.625 C-12.31131803 253.64883489 -10.78004798 244.59265646 -10.80378723 233.56817627 C-10.80152167 232.78591447 -10.79925612 232.00365266 -10.79692191 231.19768596 C-10.7906214 228.59173631 -10.79140873 225.9858392 -10.79223633 223.37988281 C-10.78924235 221.50509576 -10.78583927 219.63030932 -10.78205872 217.75552368 C-10.77323828 212.67271378 -10.77088141 207.58992073 -10.77024293 202.50710392 C-10.76953125 199.32814675 -10.76739469 196.14919384 -10.76474571 192.97023773 C-10.75549838 181.87012969 -10.75141001 170.77003364 -10.75219727 159.66992188 C-10.75279772 149.33907972 -10.74225065 139.00828984 -10.7264536 128.67746091 C-10.71335728 119.79484095 -10.70801426 110.91223803 -10.70865268 102.02960849 C-10.70890707 96.73028395 -10.70608827 91.43100587 -10.69547462 86.13169098 C-10.68575855 81.14450089 -10.68573846 76.15740135 -10.69299126 71.17020798 C-10.69403278 69.34618115 -10.69170005 67.52214859 -10.6856308 65.69813156 C-10.44059373 45.97265565 -10.44059373 45.97265565 -18.9375 28.625 C-23.54202845 24.11928117 -28.97398642 21.59274456 -34.73046875 18.8515625 C-38.29973287 16.86793607 -40.14931294 14.20137411 -41.9375 10.625 C-42.44252343 5.09457948 -42.67557257 0.21469476 -40.3125 -4.875 C-27.53868122 -18.32112503 -12.38518286 -9.7239039 0 0 Z " fill="#000000" transform="translate(489.9375,110.375)"/>
</svg>
