<svg version="1.1" xmlns="http://www.w3.org/2000/svg" xmlns:xlink="http://www.w3.org/1999/xlink" width="42" height="42" viewBox="0,0,256,256"><g fill="#688066" fill-rule="evenodd" stroke="none" stroke-width="1" stroke-linecap="butt" stroke-linejoin="miter" stroke-miterlimit="10" stroke-dasharray="" stroke-dashoffset="0" font-family="none" font-weight="none" font-size="none" text-anchor="none" style="mix-blend-mode: normal"><g transform="translate(1.5238,1.52381) scale(6.09524,6.09524)"><path d="M0,3.46714c0,-0.91954 0.36529,-1.80142 1.0155,-2.45163c0.65022,-0.65022 1.5321,-1.01551 2.45164,-1.01551h34.56196c0.4557,-0.00074 0.9071,0.0884 1.3283,0.26233c0.4212,0.17393 0.8039,0.42923 1.1263,0.75129c0.3224,0.32205 0.5781,0.70453 0.7525,1.12554c0.1744,0.42101 0.264,0.87228 0.2638,1.32798v34.56196c0.0005,0.4558 -0.0889,0.9072 -0.263,1.3284c-0.1742,0.4212 -0.4296,0.804 -0.7518,1.1263c-0.3222,0.3224 -0.7048,0.5781 -1.126,0.7525c-0.4211,0.1743 -0.8724,0.2639 -1.3282,0.2637h-34.56386c-0.45547,0 -0.90648,-0.0897 -1.32725,-0.2641c-0.42078,-0.1744 -0.80308,-0.4299 -1.12506,-0.7521c-0.32197,-0.3221 -0.57732,-0.7046 -0.75145,-1.1254c-0.17413,-0.4209 -0.26363,-0.872 -0.26338,-1.3274zM16.4265,15.8228h5.6194v2.822c0.8112,-1.6223 2.8862,-3.0823 6.0043,-3.0823c5.9779,0 7.3946,3.2313 7.3946,9.1602v10.9824h-6.0496v-9.6318c0,-3.3766 -0.8111,-5.2818 -2.871,-5.2818c-2.8579,0 -4.0463,2.0543 -4.0463,5.2818v9.6318h-6.0514zM6.05146,35.4467h6.05144v-19.8842h-6.05144v19.8823zM12.9688,9.07719c0.0114,0.51813 -0.0808,1.03331 -0.2712,1.51531c-0.1904,0.482 -0.4752,0.9212 -0.8376,1.2917c-0.3624,0.3704 -0.7952,0.6648 -1.2729,0.8657c-0.4777,0.201 -0.99072,0.3045 -1.50898,0.3045c-0.51825,0 -1.03129,-0.1035 -1.509,-0.3045c-0.47771,-0.2009 -0.91047,-0.4953 -1.27287,-0.8657c-0.36241,-0.3705 -0.64717,-0.8097 -0.83757,-1.2917c-0.19039,-0.482 -0.28259,-0.99718 -0.27118,-1.51531c0.0224,-1.01703 0.44214,-1.98485 1.16933,-2.69621c0.72719,-0.71136 1.70402,-1.10969 2.72129,-1.10969c1.01728,0 1.99408,0.39833 2.72128,1.10969c0.7272,0.71136 1.147,1.67918 1.1694,2.69621z"></path></g></g></svg>