<svg version="1.1" xmlns="http://www.w3.org/2000/svg" xmlns:xlink="http://www.w3.org/1999/xlink" width="42" height="42" viewBox="0,0,256,256"><g fill="#688066" fill-rule="nonzero" stroke="none" stroke-width="1" stroke-linecap="butt" stroke-linejoin="miter" stroke-miterlimit="10" stroke-dasharray="" stroke-dashoffset="0" font-family="none" font-weight="none" font-size="none" text-anchor="none" style="mix-blend-mode: normal"><g transform="translate(1.52381,1.52381) scale(6.09524,6.09524)"><path d="M20.75,0c-5.5032,0 -10.78109,2.18615 -14.67247,6.07753c-3.89138,3.89138 -6.07753,9.16927 -6.07753,14.67247c0,5.5032 2.18615,10.7811 6.07753,14.6725c3.89138,3.8913 9.16927,6.0775 14.67247,6.0775c5.5032,0 10.7811,-2.1862 14.6725,-6.0775c3.8913,-3.8914 6.0775,-9.1693 6.0775,-14.6725c0,-5.5032 -2.1862,-10.78109 -6.0775,-14.67247c-3.8914,-3.89138 -9.1693,-6.07753 -14.6725,-6.07753zM26.2194,37.6664h-0.1609c-0.1207,0.0069 -0.2417,-0.0111 -0.3553,-0.0527c-0.1135,-0.0417 -0.2174,-0.1061 -0.3052,-0.1893c-0.0811,-0.0858 -0.1443,-0.1868 -0.1859,-0.2973c-0.0415,-0.1104 -0.0607,-0.2281 -0.0562,-0.346v-2.4312c0.0104,-0.8075 0.0173,-1.6254 0.0173,-2.4485c-0.0028,-0.6019 -0.0907,-1.2003 -0.2611,-1.7776c-0.1614,-0.5835 -0.4866,-1.1086 -0.9372,-1.513c1.2052,-0.1164 2.39,-0.3902 3.524,-0.8144c0.9566,-0.3638 1.8219,-0.9328 2.535,-1.667c0.7038,-0.7383 1.2277,-1.6306 1.5303,-2.6041c0.3681,-1.1922 0.5432,-2.4356 0.5188,-3.6831c0.0067,-0.871 -0.1457,-1.736 -0.4496,-2.5523c-0.3089,-0.8227 -0.7759,-1.577 -1.3747,-2.2202c0.1293,-0.3244 0.2232,-0.6618 0.2801,-1.0064c0.0571,-0.3458 0.0865,-0.6951 0.0865,-1.0444c0,-0.4496 -0.0519,-0.8992 -0.1557,-1.3367c-0.0942,-0.4487 -0.222,-0.8897 -0.3821,-1.3193c-0.0611,-0.0239 -0.1263,-0.0356 -0.1919,-0.0346h-0.1902c-0.3978,0.0035 -0.7885,0.0692 -1.1655,0.1919c-0.4152,0.1213 -0.8214,0.2715 -1.2156,0.4496c-0.392,0.1757 -0.7736,0.3738 -1.143,0.5931c-0.3718,0.2196 -0.7003,0.4306 -0.9908,0.626c-2.9089,-0.8108 -5.9842,-0.8108 -8.8931,0c-0.3244,-0.2169 -0.6542,-0.4256 -0.9891,-0.626c-0.3746,-0.2212 -0.7627,-0.4187 -1.162,-0.5913c-0.3931,-0.1841 -0.8009,-0.3351 -1.2191,-0.4514c-0.3695,-0.122 -0.7555,-0.1868 -1.1447,-0.1919h-0.1902c-0.065,-0.0009 -0.1296,0.0108 -0.1902,0.0346c-0.1624,0.4302 -0.2953,0.871 -0.3977,1.3193c-0.0934,0.4393 -0.1383,0.8871 -0.14,1.3367c0,0.3493 0.0293,0.6986 0.0881,1.0444c0.0571,0.3441 0.1487,0.6813 0.2767,1.0064c-0.5973,0.6441 -1.0625,1.399 -1.36949,2.222c-0.30558,0.816 -0.4597,1.6809 -0.45477,2.5522c-0.02419,1.2408 0.14618,2.4778 0.50491,3.6658c0.31295,0.9736 0.83515,1.8676 1.52855,2.6215c0.7176,0.7297 1.5822,1.2968 2.535,1.6669c1.1291,0.4323 2.3119,0.7089 3.5154,0.8231c-0.336,0.3045 -0.6026,0.6778 -0.7816,1.0945c-0.1703,0.4122 -0.2865,0.8446 -0.3458,1.2865c-0.6345,0.3038 -1.3284,0.4632 -2.0318,0.4669c-0.6533,0.0261 -1.298,-0.1555 -1.8416,-0.5187c-0.5214,-0.3865 -0.963,-0.8704 -1.3003,-1.4249c-0.1509,-0.2329 -0.3198,-0.4537 -0.5049,-0.6605c-0.1953,-0.2175 -0.4107,-0.4161 -0.6433,-0.5931c-0.22918,-0.1713 -0.48044,-0.3109 -0.74696,-0.415c-0.26222,-0.115 -0.5454,-0.1745 -0.83173,-0.1747c-0.06916,0.0018 -0.13833,0.0087 -0.2075,0.0173c-0.09446,-0.0003 -0.18858,0.0113 -0.28012,0.0346c-0.08046,0.0211 -0.15657,0.0562 -0.22479,0.1038c-0.03103,0.0171 -0.05697,0.0421 -0.07519,0.0724c-0.01822,0.0304 -0.02808,0.0651 -0.02856,0.1005c0.00726,0.0832 0.0327,0.1638 0.07453,0.2361c0.04183,0.0723 0.09903,0.1345 0.16755,0.1823c0.16081,0.128 0.29396,0.2265 0.40117,0.2957l0.05187,0.0363c0.22998,0.1781 0.45131,0.3701 0.66054,0.5758c0.19367,0.1695 0.36831,0.3614 0.51875,0.5707c0.15563,0.2057 0.2905,0.4253 0.39944,0.6588c0.1262,0.2317 0.2594,0.498 0.3994,0.8006c0.3251,0.8196 0.9027,1.513 1.6497,1.9799c0.7833,0.4202 1.6617,0.6294 2.5522,0.6069c0.3009,0 0.6035,-0.0173 0.9026,-0.0519c0.2975,-0.0484 0.5931,-0.0985 0.8906,-0.1573v3.0139c0.0053,0.1215 -0.015,0.2428 -0.0597,0.356c-0.0447,0.1131 -0.1127,0.2155 -0.1997,0.3006c-0.087,0.085 -0.191,0.1507 -0.3051,0.1928c-0.1141,0.0421 -0.2358,0.0597 -0.3572,0.0515h-0.1072c-4.0323,-1.3026 -7.46712,-4.0022 -9.68581,-7.6124c-2.21869,-3.6103 -3.0755,-7.8941 -2.41614,-12.0801c0.65936,-4.1859 2.79156,-7.99887 6.01264,-10.75229c3.22111,-2.75343 7.31941,-4.26636 11.55691,-4.26636c4.2376,0 8.3359,1.51293 11.557,4.26636c3.221,2.75342 5.3532,6.56639 6.0126,10.75229c0.6594,4.186 -0.1974,8.4698 -2.4161,12.0801c-2.2187,3.6102 -5.6535,6.3098 -9.6858,7.6124v0.0087z"></path></g></g></svg>