<?xml version="1.0" encoding="UTF-8"?>
<svg version="1.1" xmlns="http://www.w3.org/2000/svg" width="512" height="512">
<path d="M0 0 C1.62247497 -0.00514793 3.24494433 -0.01243577 4.86740112 -0.02168274 C9.24346106 -0.04009096 13.61890645 -0.02732687 17.99494028 -0.00759244 C22.58980342 0.00887777 27.18463019 -0.00003017 31.7795105 -0.00511169 C39.4911269 -0.00962243 47.20249993 0.00617596 54.9140625 0.03417969 C63.81368793 0.06624972 72.71287516 0.0662037 81.61253178 0.04896492 C90.1977358 0.03307195 98.78278006 0.03984972 107.36797714 0.05690193 C111.01132365 0.06375176 114.6545413 0.06276139 118.29788589 0.05535698 C122.59091065 0.04766526 126.88343977 0.05991375 131.17638016 0.08720589 C132.74645009 0.0940598 134.31656658 0.09422 135.88663483 0.08699036 C147.86928568 0.03819384 156.05196292 1.57771198 164.93701172 9.91625977 C171.7924577 16.75612519 173.81578349 23.21167069 173.94873047 32.85375977 C173.92898153 35.46720286 173.89348763 38.08056846 173.84326172 40.69360352 C173.82818127 42.04970838 173.81449883 43.40582953 173.80224609 44.76196289 C173.76712008 48.05209953 173.71792811 51.34138535 173.65576172 54.63110352 C174.2503418 54.80633545 174.84492188 54.98156738 175.45751953 55.16210938 C184.19566995 57.87790094 190.18698716 62.30087083 194.59326172 70.50610352 C198.55289207 78.65243979 199.12278724 88.43717791 200.26296997 97.31117249 C200.41168671 98.44703322 200.56040344 99.58289396 200.71362674 100.75317472 C201.20822414 104.53766355 201.69788302 108.32277402 202.1875 112.10791016 C202.54183215 114.83061918 202.89716787 117.55319705 203.25241089 120.27578735 C204.21481054 127.65783217 205.17199474 135.04054739 206.12799692 142.42342305 C206.72596264 147.04127646 207.3249319 151.65899935 207.92406845 156.27670097 C209.58572244 169.08509464 211.24602181 181.89366231 212.90147591 194.70285892 C213.06012155 195.93036259 213.06012155 195.93036259 213.22197216 197.1826643 C213.32797409 198.00285098 213.43397601 198.82303766 213.54319012 199.66807848 C213.75795775 201.32982606 213.97272771 202.99157334 214.1875 204.65332031 C214.29403113 205.47758754 214.40056226 206.30185477 214.5103216 207.15109979 C216.23540366 220.49661207 217.97013276 233.84085107 219.70902742 247.1845699 C221.49813372 260.91469956 223.27905815 274.64587064 225.051916 288.37810796 C226.04592079 296.07599985 227.04334742 303.77341255 228.04983902 311.46968269 C228.9070533 318.02477281 229.75671975 324.58078784 230.5969006 331.13808382 C231.02488836 334.47663389 231.45738879 337.81442344 231.89716339 341.15145302 C237.2917046 382.13589492 237.2917046 382.13589492 228.96044922 394.05688477 C223.34614734 401.00088972 216.50697105 405.22702956 207.65576172 406.63110352 C205.00413117 406.71271105 202.38050699 406.74781546 199.72998047 406.72875977 C198.60859428 406.72663734 198.60859428 406.72663734 197.46455383 406.72447205 C195.09074807 406.71890115 192.71703869 406.70635412 190.34326172 406.69360352 C188.72802871 406.68858475 187.11279422 406.6840225 185.49755859 406.67993164 C181.55025617 406.66894127 177.60302525 406.65169683 173.65576172 406.63110352 C173.70216797 407.82606445 173.74857422 409.02102539 173.79638672 410.25219727 C174.25003023 426.72534366 174.25003023 426.72534366 169.65576172 433.63110352 C169.24326172 434.32333008 168.83076172 435.01555664 168.40576172 435.72875977 C163.41836076 443.30904248 156.27119132 447.33333699 147.48856354 449.20979691 C141.5388076 450.09467049 135.52239429 449.92638508 129.52001953 449.92163086 C128.00285515 449.9276247 126.4856938 449.9344322 124.96853638 449.94198608 C120.86913714 449.95956693 116.76982153 449.96433812 112.67038822 449.96561766 C110.10280819 449.96704439 107.53524907 449.97132386 104.96767426 449.97661209 C95.99194502 449.99508668 87.01627497 450.00328599 78.04052734 450.00170898 C69.7034075 450.00050851 61.36654691 450.02159894 53.02949262 450.05319631 C45.84698954 450.07943776 38.66457073 450.09007298 31.48202014 450.08879817 C27.20316351 450.08829081 22.9245375 450.09384752 18.64572906 450.11515427 C14.61705792 450.13466982 10.58883425 450.13457137 6.56014633 450.120121 C5.09171512 450.11804814 3.62325489 450.12264165 2.15487289 450.13484192 C-11.01751168 450.23709358 -22.58648675 448.64584283 -32.24658203 439.14282227 C-38.59778353 431.53793853 -40.51806971 424.07550142 -40.40673828 414.38110352 C-40.40222656 413.63602539 -40.39771484 412.89094727 -40.39306641 412.12329102 C-40.38133074 410.29252711 -40.36339678 408.46180479 -40.34423828 406.63110352 C-41.32706787 406.64681396 -42.30989746 406.66252441 -43.32250977 406.67871094 C-47.00699504 406.73345935 -50.69144517 406.76761493 -54.3762207 406.79589844 C-55.96384754 406.81088365 -57.55143371 406.83127898 -59.13891602 406.85742188 C-76.17274524 407.13069186 -76.17274524 407.13069186 -83.34423828 403.63110352 C-84.20275391 403.21731445 -85.06126953 402.80352539 -85.94580078 402.37719727 C-92.97270496 397.83277082 -97.40527053 392.01485669 -100.78173828 384.38110352 C-103.0091045 369.5319954 -100.01569288 354.38317585 -98.0871582 339.65258789 C-97.73562356 336.92472534 -97.38675024 334.19652389 -97.03773499 331.46833801 C-96.18989191 324.85381853 -95.3326075 318.24055653 -94.4719555 311.62769282 C-93.46801975 303.91141355 -92.47322032 296.19396447 -91.47865526 288.4764728 C-89.70258254 274.69746095 -87.91775168 260.9195977 -86.12817383 247.14233398 C-84.39541002 233.80243421 -82.66967457 220.46164901 -80.95141602 207.11987305 C-79.07614565 192.55903089 -77.19719087 177.99867352 -75.31169015 163.43915224 C-75.11026694 161.88377674 -74.9088443 160.32840116 -74.70742226 158.77302551 C-74.60833642 158.00793855 -74.50925059 157.24285158 -74.40716216 156.45458016 C-73.71231625 151.08766201 -73.01995126 145.7204272 -72.32848167 140.35307312 C-71.48456417 133.8032898 -70.63627737 127.25408884 -69.78262993 120.70556629 C-69.34797357 117.37050575 -68.91573718 114.03518209 -68.48736954 110.69930458 C-63.12022401 68.93428503 -63.12022401 68.93428503 -51.90673828 59.63110352 C-48.27925502 56.85203715 -44.75978638 55.74706221 -40.34423828 54.63110352 C-40.36518555 53.84050537 -40.38613281 53.04990723 -40.40771484 52.23535156 C-40.49170106 48.59656888 -40.54315916 44.95799108 -40.59423828 41.31860352 C-40.62775391 40.07530273 -40.66126953 38.83200195 -40.69580078 37.55102539 C-40.80349649 27.29300867 -39.43208948 18.08807698 -32.28173828 10.25610352 C-31.27433594 9.09981445 -31.27433594 9.09981445 -30.24658203 7.92016602 C-20.9158954 0.56110496 -11.45256318 -0.09300186 0 0 Z M-16.34423828 26.63110352 C-20.05855706 33.31438509 -20.05855706 33.31438509 -18.34423828 53.63110352 C37.75576172 53.63110352 93.85576172 53.63110352 151.65576172 53.63110352 C154.21649932 31.40228035 154.21649932 31.40228035 146.65576172 23.63110352 C143.88371305 22.24507918 141.6297984 22.49554462 138.52653503 22.4839325 C137.21840347 22.47677719 135.91027191 22.46962189 134.5625 22.46224976 C133.10424828 22.45940936 131.64599631 22.45669764 130.18774414 22.45410156 C128.65863388 22.44783809 127.12952515 22.44119139 125.60041809 22.43418884 C121.43918179 22.41676889 117.27795699 22.40622447 113.11669326 22.39798331 C110.51789573 22.39283547 107.91910178 22.38675965 105.32030678 22.38047218 C97.19219893 22.36141769 89.06410019 22.34718687 80.9359743 22.33886021 C71.54792388 22.32908454 62.16010903 22.30275761 52.77214164 22.26235932 C45.51942721 22.23221853 38.26678038 22.2173933 31.01400453 22.2140792 C26.68051194 22.21172646 22.34727095 22.20273713 18.01384544 22.17761803 C13.93688691 22.15436762 9.86034615 22.15009166 5.78333855 22.16037941 C4.2873572 22.16087562 2.7913555 22.15453008 1.29543686 22.14082336 C-0.74765273 22.12315121 -2.79092307 22.13258064 -4.83406067 22.14335632 C-6.54884723 22.13977379 -6.54884723 22.13977379 -8.29827595 22.13611889 C-12.06107983 22.74759397 -13.66890957 23.95408394 -16.34423828 26.63110352 Z M-15.34423828 75.63110352 C-10.70000867 81.20726898 -5.75133904 86.36288684 -0.61233521 91.48326111 C0.68779894 92.78467689 0.68779894 92.78467689 2.01419842 94.1123839 C4.40457429 96.50411608 6.79715876 98.89359821 9.19072628 101.2821337 C11.77733045 103.8644018 14.36102588 106.44957746 16.94508362 109.03439331 C21.41724994 113.50708287 25.89123716 117.97794421 30.36648178 122.44755363 C36.83685703 128.90978676 43.30445489 135.37479374 49.77138771 141.84047157 C60.26474358 152.33164118 70.76032863 162.8205777 81.25732422 173.30810547 C91.45153258 183.49312868 101.64468555 193.67920622 111.83642578 203.86669922 C112.46510551 204.49511622 113.09378523 205.12353322 113.74151586 205.77099317 C116.89554831 208.92372053 120.04956007 212.0764686 123.20356154 215.22922695 C149.35108871 241.36639478 175.50223736 267.4999367 201.65576172 293.63110352 C202.96959794 291.00343107 202.56816649 289.4896345 202.23779297 286.57397461 C202.12016602 285.5188266 202.00253906 284.46367859 201.88134766 283.3765564 C201.30503979 278.53264958 200.72614914 273.68928664 200.125 268.84838867 C199.81367363 266.29914081 199.5150396 263.74830891 199.22949219 261.19604492 C198.81701457 257.51146788 198.36570094 253.8334595 197.90576172 250.15454102 C197.78563721 249.02092133 197.6655127 247.88730164 197.54174805 246.71932983 C197.39890381 245.64526886 197.25605957 244.57120789 197.10888672 243.46459961 C196.99706055 242.52909271 196.88523437 241.59358582 196.77001953 240.62973022 C195.06553041 236.04270689 191.99839093 233.14997873 188.65576172 229.63110352 C187.66907749 228.57340293 186.6832992 227.51485682 185.69821739 226.45566368 C181.9909793 222.48061519 178.25569062 218.53241055 174.51782227 214.58618164 C173.81658297 213.84508022 173.11534367 213.10397881 172.39285469 212.34041977 C158.52442116 197.69163407 144.50814274 183.18789931 130.43413067 168.73673248 C121.4966332 159.55338502 112.6114017 150.32907379 103.83911133 140.98754883 C96.15760941 132.80781062 88.3883106 124.72395571 80.50656921 116.73681593 C76.35100697 112.51965007 72.24819367 108.27245125 68.24847984 103.90675354 C53.32162143 87.6683998 40.68794205 74.44114695 17.64990288 73.42751646 C6.59540936 73.26683355 -4.39772733 74.1309437 -15.34423828 75.63110352 Z M66.65576172 75.63110352 C72.03677035 82.16654364 77.98389113 88.10058547 83.96948242 94.07421875 C85.11179422 95.21788746 86.25389359 96.36176838 87.39579773 97.50584412 C90.47985916 100.59444235 93.56704844 103.67989592 96.6549685 106.7646358 C99.88843855 109.99556649 103.11945955 113.22894483 106.35087585 116.46192932 C111.77012524 121.88299424 117.19147179 127.30195518 122.61401367 132.71972656 C128.89055829 138.99081326 135.16347009 145.26551655 141.43453914 151.54207844 C146.82047996 156.93254834 152.20835582 162.32107831 157.59787244 167.70797306 C160.81651868 170.92505752 164.03447875 174.14282052 167.25069618 177.3623333 C170.26816313 180.38267652 173.28804202 183.40058671 176.30984688 186.41658974 C177.42135828 187.52677293 178.53200858 188.63781897 179.64175797 189.74976349 C181.14957426 191.2602885 182.66039788 192.76773743 184.17207336 194.2743988 C185.01878255 195.12073096 185.86549173 195.96706312 186.73785877 196.83904171 C188.34006531 198.74489172 188.34006531 198.74489172 189.65576172 198.63110352 C189.79898858 192.30270114 189.25393609 186.2366833 188.44873047 179.96313477 C188.2596386 178.46637459 188.2596386 178.46637459 188.06672668 176.93937683 C187.7995776 174.84220984 187.52964855 172.7453953 187.25708008 170.64892578 C186.84338003 167.44451994 186.44753492 164.23821647 186.05224609 161.03149414 C185.78966607 158.98773377 185.52603044 156.94410869 185.26123047 154.90063477 C185.14547165 153.94534378 185.02971283 152.9900528 184.91044617 152.0058136 C184.79054825 151.1110582 184.67065033 150.2163028 184.54711914 149.29443359 C184.44719162 148.51248123 184.3472641 147.73052887 184.24430847 146.92488098 C182.82969633 141.41163085 178.90602887 137.37460546 175.23364258 133.18847656 C174.68833893 132.56369919 174.14303528 131.93892181 173.58120728 131.29521179 C166.42222273 123.14526626 159.05882223 115.18779293 151.59326172 107.31860352 C150.88008789 106.56540833 150.16691406 105.81221313 149.43212891 105.03619385 C127.48721615 81.07603831 127.48721615 81.07603831 97.73045349 71.16447449 C87.16747396 71.0959665 76.79512632 72.74997259 66.65576172 75.63110352 Z M148.65576172 75.63110352 C153.58333228 81.61638087 158.96524397 87.09420577 164.45288086 92.55859375 C165.98589543 94.08617473 167.51339939 95.61912432 169.04052734 97.15258789 C170.01221145 98.12361245 170.98420503 99.09432743 171.95654297 100.06469727 C172.83479736 100.94182373 173.71305176 101.8189502 174.61791992 102.72265625 C176.31208712 104.74502921 176.31208712 104.74502921 177.65576172 104.63110352 C177.5994452 90.76879875 177.5994452 90.76879875 172.15576172 78.63110352 C168.89195319 76.02005669 167.38875812 75.50621687 163.30419922 75.53344727 C162.02802734 75.53828125 162.02802734 75.53828125 160.72607422 75.54321289 C159.83662109 75.5515918 158.94716797 75.5599707 158.03076172 75.56860352 C156.68498047 75.57537109 156.68498047 75.57537109 155.31201172 75.58227539 C153.09319524 75.59407761 150.87451153 75.61054196 148.65576172 75.63110352 Z M-41.34423828 82.63110352 C-42.77916441 89.39151308 -43.90130038 96.13669334 -44.78051758 102.99023438 C-44.90921234 103.97198639 -45.0379071 104.9537384 -45.17050171 105.96524048 C-45.59015269 109.17501099 -46.00462834 112.38542127 -46.41845703 115.59594727 C-46.70934942 117.83892697 -47.0003515 120.08189245 -47.29145813 122.32484436 C-47.89819926 127.00709939 -48.50209117 131.68971192 -49.10424805 136.37255859 C-49.87737973 142.38149168 -50.66001017 148.38914626 -51.44502544 154.39653683 C-52.04759495 159.01891345 -52.64399445 163.64207053 -53.23862648 168.26547432 C-53.52471642 170.48219625 -53.81301797 172.69863389 -54.10355186 174.91477776 C-54.5075374 178.0016396 -54.90293732 181.0894835 -55.29614258 184.17773438 C-55.41815536 185.09566269 -55.54016815 186.013591 -55.6658783 186.95933533 C-55.77099731 187.79883728 -55.87611633 188.63833923 -55.98442078 189.50328064 C-56.0786114 190.23233581 -56.17280203 190.96139097 -56.26984692 191.71253872 C-56.46585211 193.85417436 -56.46585211 193.85417436 -55.34423828 196.63110352 C-34.22423828 175.51110352 -13.10423828 154.39110352 8.65576172 132.63110352 C5.14500578 128.53522159 1.8207334 124.67070095 -1.95678711 120.88916016 C-3.24260429 119.59861473 -3.24260429 119.59861473 -4.55439758 118.28199768 C-5.46086533 117.37755417 -6.36733307 116.47311066 -7.30126953 115.54125977 C-8.25451493 114.58733951 -9.20761194 113.63327095 -10.16056824 112.67906189 C-12.14326937 110.69489665 -14.12774262 108.71252624 -16.11352539 106.73144531 C-18.66364927 104.18706496 -21.20919418 101.63815779 -23.75346851 99.08792973 C-25.713548 97.12424951 -27.6759869 95.16294124 -29.63916588 93.20236015 C-31.03706636 91.80545285 -32.43294985 90.40652808 -33.82881165 89.00758362 C-34.6702623 88.16928513 -35.51171295 87.33098663 -36.37866211 86.46728516 C-37.12223465 85.72450821 -37.86580719 84.98173126 -38.63191223 84.21644592 C-40.0776149 82.51787441 -40.0776149 82.51787441 -41.34423828 82.63110352 Z M20.23542786 151.50138855 C19.52759155 152.13999817 18.81975525 152.77860779 18.09046936 153.43656921 C17.31384445 154.14811661 16.53721954 154.859664 15.73706055 155.59277344 C14.91895905 156.33669342 14.10085754 157.0806134 13.25796509 157.84707642 C5.60877686 164.83752527 -1.91360477 171.96227512 -9.39368725 179.1329298 C-14.40493915 183.93188618 -19.44861617 188.67946134 -24.61010742 193.31689453 C-49.93711401 216.12047822 -65.67145711 234.62950912 -68.12651062 269.76274109 C-68.77840711 280.27968684 -68.77840711 280.27968684 -67.34423828 290.63110352 C-28.73423828 252.02110352 9.87576172 213.41110352 49.65576172 173.63110352 C44.73530891 167.89057524 39.73569694 162.52783708 34.40576172 157.19360352 C33.59107422 156.36666992 32.77638672 155.53973633 31.93701172 154.68774414 C30.76912109 153.51695312 30.76912109 153.51695312 29.57763672 152.32250977 C28.87219727 151.61296143 28.16675781 150.90341309 27.43994141 150.17236328 C24.24892353 147.41580939 22.99105882 149.00482708 20.23542786 151.50138855 Z M59.20988464 194.62786865 C58.6481734 195.16599851 58.08646215 195.70412837 57.50772935 196.25856519 C55.61349372 198.07649246 53.72670923 199.90195723 51.84008789 201.7277832 C50.48852968 203.02918224 49.13675345 204.3303549 47.78477478 205.63131714 C35.37315786 217.59302185 23.05980132 229.65638834 10.77166271 241.74476242 C2.51854099 249.86071979 -5.76085274 257.94529578 -14.11694336 265.95532227 C-21.41371273 272.94991868 -28.65218648 279.99925563 -35.82858866 287.11736989 C-39.62141706 290.87585772 -43.43515841 294.60394661 -47.31968117 298.26778412 C-65.92198431 315.85603581 -77.29250932 329.45958123 -78.22880554 355.769104 C-78.25005749 357.12215917 -78.26670091 358.47529607 -78.27831078 359.82846832 C-78.35577372 364.29645659 -78.80441081 368.66999821 -79.34364033 373.10294724 C-79.34433345 376.03348801 -78.58261024 377.99826442 -77.34423828 380.63110352 C-74.52766561 379.34742513 -72.47475018 378.01105044 -70.29079819 375.82375908 C-69.71155712 375.24850011 -69.13231605 374.67324114 -68.53552222 374.08055007 C-67.90905807 373.44826024 -67.28259391 372.8159704 -66.637146 372.16452026 C-65.96402571 371.49310883 -65.29090542 370.82169739 -64.59738755 370.12994015 C-62.33862535 367.8744774 -60.08709486 365.61193091 -57.83544922 363.34936523 C-56.21954574 361.73289774 -54.60320199 360.11687026 -52.9864502 358.50125122 C-48.59390732 354.10928323 -44.20756732 349.71116675 -39.82229137 345.31194448 C-35.24009694 340.71726548 -30.65225538 336.12823242 -26.06500244 331.53860474 C-18.36481777 323.8329059 -10.66813648 316.12372382 -2.97412109 308.41186523 C4.95061811 300.46876691 12.87745598 292.52777269 20.80712891 284.58959961 C21.29594529 284.10025778 21.78476167 283.61091595 22.28839067 283.10674559 C24.74066139 280.65186478 27.19297347 278.19702529 29.64530611 275.74220634 C49.98853975 255.3782406 70.32444232 235.00696412 90.65576172 214.63110352 C89.70446125 213.51478011 88.75223452 212.39924599 87.79962158 211.28404236 C87.00436506 210.35209502 87.00436506 210.35209502 86.19304276 209.40132046 C82.78998546 205.48261624 79.07235131 201.86315004 75.40576172 198.19360352 C74.59107422 197.36666992 73.77638672 196.53973633 72.93701172 195.68774414 C71.76912109 194.51695312 71.76912109 194.51695312 70.57763672 193.32250977 C69.51947754 192.25818726 69.51947754 192.25818726 68.43994141 191.17236328 C64.47707105 187.74904629 62.19474339 191.72966304 59.20988464 194.62786865 Z M103.896698 232.1496582 C102.83746628 233.21555176 102.83746628 233.21555176 101.75683594 234.30297852 C100.95615692 235.10380859 100.15547791 235.90463867 99.33053589 236.72973633 C98.46590729 237.6046875 97.60127869 238.47963867 96.71044922 239.38110352 C95.82543732 240.26894531 94.94042542 241.15678711 94.02859497 242.0715332 C91.67409913 244.43535033 89.32402764 246.80340005 86.97595215 249.17358398 C84.5798702 251.59010721 82.17813211 254.0009941 79.77685547 256.41235352 C75.06457224 261.14673817 70.35803785 265.88678063 65.65576172 270.63110352 C70.76865289 276.75457561 76.22867917 282.50574911 81.76245117 288.24804688 C82.25731144 288.76276928 82.75217171 289.27749168 83.26202774 289.80781174 C93.01492353 299.9520022 102.84684844 310.01881111 112.70644855 320.05922604 C118.96846836 326.43895915 125.20486143 332.84019373 131.3840332 339.30029297 C136.79543049 344.95763654 142.25048493 350.56840878 147.76104516 356.12926966 C150.66784715 359.06556181 153.54963007 362.01884627 156.37993813 365.0290966 C170.14434083 380.26769491 170.14434083 380.26769491 189.04319286 386.34033298 C196.256698 386.18003177 203.54521037 385.84017887 209.65576172 381.63110352 C212.80904178 377.52610461 212.89930403 374.82219153 212.38546753 369.74867249 C212.26013656 368.40610837 212.13695224 367.06334239 212.01574326 365.72039986 C211.95102247 365.03937494 211.88630168 364.35835001 211.81961966 363.65668797 C211.56656832 360.52850965 211.5328609 357.39738201 211.46340942 354.26048279 C210.3984754 332.87891482 202.4539621 321.58276739 187.12313986 307.29498219 C184.28857521 304.62487711 181.53243453 301.87581893 178.76589966 299.13560486 C173.54450805 293.98702477 168.25768389 288.91175975 162.94250977 283.86025375 C156.88688862 278.0974151 150.91684779 272.24892517 144.94915748 266.39530957 C136.16281351 257.78333944 127.34879794 249.1989041 118.44894791 240.70415306 C117.03177902 239.35014341 115.61898451 237.99156002 114.20629883 236.63287354 C113.36791473 235.83625809 112.52953064 235.03964264 111.66574097 234.21888733 C110.57014768 233.17313081 110.57014768 233.17313081 109.45242119 232.1062479 C106.9993335 230.09214418 106.30413468 230.07137973 103.896698 232.1496582 Z M47.16880798 288.99780273 C46.53149246 289.63733887 45.89417694 290.276875 45.23754883 290.93579102 C44.51687729 291.65653809 43.79620575 292.37728516 43.05369568 293.11987305 C42.27140091 293.9073291 41.48910614 294.69478516 40.68310547 295.50610352 C39.8854628 296.30516113 39.08782013 297.10421875 38.26600647 297.92749023 C35.70608102 300.49303612 33.14964478 303.06202834 30.59326172 305.63110352 C28.86367186 307.36570574 27.13385716 309.1000838 25.40380859 310.83422852 C21.15184228 315.09725092 16.90273953 319.36311168 12.65576172 323.63110352 C18.06306861 335.77680909 29.77790652 346.64641667 38.65576172 356.38110352 C39.26664013 357.05254772 39.87751854 357.72399193 40.50690842 358.41578293 C56.30564874 375.59468492 70.50781681 387.33121535 94.47483444 388.52881241 C100.40637503 388.71865279 106.29575404 388.53739166 112.21826172 388.19360352 C113.05448059 388.14507736 113.89069946 388.09655121 114.7522583 388.04655457 C125.12658279 387.39707735 135.38728702 386.25474653 145.65576172 384.63110352 C140.95358664 378.98175349 135.93084059 373.7639214 130.72875977 368.57470703 C129.85166855 367.69586349 128.97457733 366.81701996 128.07090759 365.9115448 C125.68471086 363.52172163 123.29631284 361.13414351 120.90671134 358.74772763 C118.40194617 356.24550721 115.89963632 353.74083324 113.39692688 351.23655701 C109.20171581 347.03953242 105.00441303 342.84460839 100.8059082 338.65087891 C95.94718149 333.79761456 91.09209639 328.94072953 86.23884553 324.08198982 C82.06733183 319.90594701 77.89388383 315.73184481 73.71879417 311.55937713 C71.22673546 309.06887958 68.73536259 306.57770605 66.24573326 304.08477974 C63.47860317 301.31424021 60.70742175 298.54777577 57.93579102 295.78173828 C57.10724609 294.95116913 56.27870117 294.12059998 55.42504883 293.26486206 C54.67507126 292.51770432 53.92509369 291.77054657 53.15238953 291.00074768 C52.49741328 290.34614846 51.84243704 289.69154924 51.16761303 289.01711369 C49.16548717 287.15847276 49.16548717 287.15847276 47.16880798 288.99780273 Z M-8.4050293 344.5625 C-9.2658461 345.42016464 -10.1266629 346.27782928 -11.01356506 347.16148376 C-11.95855247 348.10826094 -12.90340917 349.05516859 -13.84814453 350.00219727 C-14.8106393 350.96401902 -15.77328253 351.92569225 -16.73606873 352.88722229 C-18.75609849 354.90577496 -20.77430114 356.92613266 -22.79125977 358.94775391 C-25.38291774 361.54510917 -27.97903797 364.13795046 -30.57653904 366.72946072 C-32.56596881 368.71528519 -34.55302069 370.70347519 -36.53935051 372.69239998 C-37.49594539 373.64966421 -38.4532899 374.60617992 -39.41137886 375.56194878 C-40.74761286 376.89565679 -42.08032113 378.23289444 -43.4128418 379.5703125 C-44.17371597 380.33198227 -44.93459015 381.09365204 -45.71852112 381.87840271 C-47.45757974 383.35486648 -47.45757974 383.35486648 -47.34423828 384.63110352 C-18.63423828 384.63110352 10.07576172 384.63110352 39.65576172 384.63110352 C34.74931699 378.88390137 34.74931699 378.88390137 29.59399414 373.43994141 C28.8569072 372.6997023 28.11982025 371.9594632 27.36039734 371.1967926 C26.58517227 370.42359177 25.8099472 369.65039093 25.01123047 368.85375977 C23.79564201 367.63673622 23.79564201 367.63673622 22.55549622 366.39512634 C20.85487616 364.6938295 19.15300751 362.99377991 17.44995117 361.29492188 C14.83053885 358.68090686 12.21655761 356.06154497 9.60302734 353.44165039 C7.94774931 351.7870324 6.2921615 350.13272424 4.63623047 348.47875977 C3.85088425 347.69138931 3.06553802 346.90401886 2.25639343 346.0927887 C1.53506729 345.37461472 0.81374115 344.65644073 0.07055664 343.91650391 C-0.56642654 343.28031631 -1.20340973 342.64412872 -1.85969543 341.98866272 C-4.83121035 339.27132288 -5.95693201 342.11695984 -8.4050293 344.5625 Z M-18.34423828 406.63110352 C-19.07684924 417.66999311 -19.07684924 417.66999311 -13.55721951 425.41895294 C-10.57075159 427.05477739 -8.33668966 427.01446504 -4.9365387 427.0255127 C-2.95759613 427.04253738 -2.95759613 427.04253738 -0.93867493 427.05990601 C0.52175964 427.05726272 1.98219365 427.0542915 3.44262695 427.05102539 C4.981889 427.0583654 6.52114555 427.06695144 8.06039429 427.07669067 C12.24016059 427.09892214 16.41972984 427.10183657 20.59954715 427.09994316 C24.08869526 427.09982354 27.57780151 427.10838419 31.06693798 427.11672068 C39.29815304 427.13596044 47.52926667 427.13883641 55.76049805 427.13208008 C64.25281272 427.12543775 72.74469322 427.14830984 81.23691982 427.18539381 C88.52791425 427.21607729 95.81876891 427.22745235 103.10982662 427.223557 C107.46455494 427.22148817 111.81894539 427.22698915 116.17361259 427.25144958 C120.26876631 427.27369224 124.36321343 427.2718602 128.45837021 427.25152206 C129.96079493 427.24810761 131.46326699 427.25322002 132.96562767 427.26750565 C135.01826983 427.28567618 137.06850905 427.27297145 139.12107849 427.25256348 C140.26904624 427.25327599 141.41701399 427.25398849 142.59976864 427.2547226 C146.59486921 426.43946521 148.08516204 424.71732676 150.65576172 421.63110352 C152.89679323 417.1490405 151.65576172 411.64220231 151.65576172 406.63110352 C95.55576172 406.63110352 39.45576172 406.63110352 -18.34423828 406.63110352 Z " fill="#000000" transform="translate(190.34423828125,31.368896484375)"/>
</svg>
