<?xml version="1.0" encoding="UTF-8"?>
<svg version="1.1" xmlns="http://www.w3.org/2000/svg" width="512" height="512">
<path d="M0 0 C0.81982864 -0.00705963 1.63965729 -0.01411926 2.48432922 -0.02139282 C36.53639487 -0.24797864 36.53639487 -0.24797864 52.20703125 3.203125 C53.12693848 3.39648438 54.0468457 3.58984375 54.99462891 3.7890625 C76.3415853 8.36719513 97.0997948 15.5676776 116.20703125 26.203125 C116.83899414 26.55342773 117.47095703 26.90373047 118.12207031 27.26464844 C163.28043849 52.61072196 191.1218749 95.14229326 205.20703125 144.203125 C207.2124613 151.80496209 208.81164198 159.46804201 210.20703125 167.203125 C210.33835449 167.9029248 210.46967773 168.60272461 210.60498047 169.32373047 C214.02405354 188.35641073 213.49971198 209.88833175 210.93212891 228.99926758 C207.59527469 254.56845273 212.66768406 276.56302798 228.515625 297.2109375 C229.30066406 298.21898437 230.08570313 299.22703125 230.89453125 300.265625 C239.01337164 311.11383665 240.69262415 320.85829264 239.20703125 334.203125 C238.37197401 337.92804325 237.14903067 340.92753738 235.20703125 344.203125 C234.65789062 345.18732422 234.65789062 345.18732422 234.09765625 346.19140625 C229.84560568 352.74008908 223.26405877 357.16047817 217.078125 361.75268555 C216.46066406 362.23133057 215.84320313 362.70997559 215.20703125 363.203125 C214.19141113 363.90920898 213.17579102 364.61529297 212.12939453 365.34277344 C208.39009594 368.49409289 207.8116728 371.91064888 207.01171875 376.58203125 C206.85212677 377.38994614 206.69253479 378.19786102 206.52810669 379.03025818 C206.0233112 381.60494462 205.55111485 384.18421592 205.08203125 386.765625 C204.44500443 390.14417663 203.79488031 393.52003606 203.13671875 396.89453125 C202.8995816 398.11518028 202.8995816 398.11518028 202.65765381 399.36048889 C198.71800957 419.06611543 189.79959875 436.4933439 172.97949219 448.05541992 C160.77441531 455.95845937 148.35706101 460.58476745 133.796875 460.3984375 C132.94396378 460.3956076 132.09105255 460.39277771 131.21229553 460.38986206 C128.52289007 460.37878331 125.83383383 460.35370293 123.14453125 460.328125 C121.30664548 460.31807925 119.46875442 460.30895621 117.63085938 460.30078125 C113.15611812 460.27888451 108.68163362 460.24444173 104.20703125 460.203125 C101.31534862 469.49176826 99.22560302 478.41208135 99.109375 488.19921875 C98.88526938 503.67963549 98.88526938 503.67963549 94.76953125 508.390625 C90.33495321 512.34378747 87.02286288 512.5546022 81.19140625 512.49581909 C72.24861174 511.83887713 63.47962076 509.77451688 54.70703125 507.98828125 C52.46291898 507.54013376 50.21860526 507.092994 47.97410583 506.64678955 C41.96010561 505.44816377 35.94905402 504.23533685 29.93854904 503.01932144 C23.69887029 501.75902364 17.4568407 500.5104753 11.21508789 499.26049805 C1.09522494 497.23227831 -9.022947 495.19580618 -19.14013672 493.15429688 C-31.61228945 490.63809198 -44.08955533 488.14826838 -56.56880569 485.66754341 C-62.42430683 484.50235623 -68.27869851 483.3316169 -74.13288307 482.15983486 C-78.67897989 481.24994808 -83.22549304 480.34230161 -87.77319336 479.44046021 C-91.98836961 478.60416071 -96.20178385 477.7595034 -100.41395378 476.9081955 C-101.93565227 476.6020819 -103.45794269 476.29889313 -104.98086739 475.99893951 C-107.04306522 475.59232265 -109.10283973 475.17509566 -111.16235352 474.75512695 C-112.30648209 474.52614212 -113.45061066 474.29715729 -114.62940979 474.06123352 C-121.28893369 472.25485208 -124.83515963 469.6309775 -128.79296875 464.203125 C-131.15588902 457.11436418 -129.11361994 451.63545907 -126.54296875 445.015625 C-118.14568071 421.92255183 -114.80608462 396.17827983 -121.79296875 372.203125 C-122.13328125 370.99269531 -122.47359375 369.78226562 -122.82421875 368.53515625 C-127.16251263 354.39173194 -133.66930455 341.84530068 -142.79296875 330.203125 C-169.3146863 296.28067818 -188.59068548 255.40348996 -189.03125 211.55078125 C-189.04104385 210.74175354 -189.05083771 209.93272583 -189.06092834 209.09918213 C-189.23653627 190.81541342 -189.01420777 173.10002193 -184.79296875 155.203125 C-184.57866211 154.29127441 -184.36435547 153.37942383 -184.14355469 152.43994141 C-173.13408109 107.33635562 -146.17839813 66.68173585 -108.79296875 39.203125 C-107.73335938 38.42195313 -106.67375 37.64078125 -105.58203125 36.8359375 C-75.20852562 15.16200385 -37.63737416 0.21595316 0 0 Z M-107.79296875 79.203125 C-108.47101563 79.80640625 -109.1490625 80.4096875 -109.84765625 81.03125 C-132.87704565 102.84856628 -147.45114263 133.81277916 -154.79296875 164.203125 C-155.11523438 165.48316406 -155.4375 166.76320312 -155.76953125 168.08203125 C-158.19072815 179.01336226 -158.05208655 190.06389167 -158.04296875 201.203125 C-158.04237457 202.0253656 -158.0417804 202.8476062 -158.04116821 203.69476318 C-158.03466726 206.05187254 -158.01820154 208.40861429 -157.99609375 210.765625 C-157.99169785 211.48565704 -157.98730194 212.20568909 -157.98277283 212.94754028 C-157.98191711 216.70087245 -157.98191711 216.70087245 -156.79296875 220.203125 C-151.84296875 220.203125 -146.89296875 220.203125 -141.79296875 220.203125 C-141.695 219.10355469 -141.59703125 218.00398437 -141.49609375 216.87109375 C-140.36139202 205.2272068 -138.80163231 195.1071483 -131.0625 185.859375 C-129.58232437 184.1147833 -129.58232437 184.1147833 -128.79296875 181.203125 C-126.9921875 180.19921875 -126.9921875 180.19921875 -124.79296875 179.203125 C-123.38724934 178.23820479 -121.991882 177.25808476 -120.60546875 176.265625 C-110.92896199 169.74034906 -99.21971473 167.72627261 -87.76171875 169.734375 C-74.84335777 172.73561038 -65.14404295 178.667701 -57.35546875 189.703125 C-51.36963706 199.55023967 -51.20473073 208.20314819 -49.79296875 220.203125 C-33.62296875 220.203125 -17.45296875 220.203125 -0.79296875 220.203125 C-0.75558594 215.8203125 -0.71820313 211.4375 -0.6796875 206.921875 C-0.64153746 203.41053371 -0.60046501 199.89925344 -0.55742645 196.38796997 C-0.51290442 192.69063413 -0.47344136 188.99340798 -0.4465332 185.29589844 C-0.42037905 181.72951648 -0.37989329 178.1635503 -0.32978249 174.59742737 C-0.30516436 172.58584027 -0.29510039 170.57409191 -0.2853241 168.56237793 C-0.17717156 161.78346137 0.10902141 156.29589291 3.20703125 150.203125 C8.21788117 146.13180944 12.04232821 145.09111325 18.37890625 145.02734375 C19.6009375 145.00349609 20.82296875 144.97964844 22.08203125 144.95507812 C24.6495746 144.91237201 27.21733296 144.88097983 29.78515625 144.86132812 C36.73120967 144.70445822 41.64886579 144.55846258 47.20703125 140.203125 C50.13397288 137.05611257 51.12539549 133.86787337 51.64453125 129.640625 C51.00369593 124.60549033 49.53693043 121.49708095 45.89453125 117.953125 C40.99383303 114.76197267 36.45619334 113.95877813 30.671875 113.89453125 C28.83979492 113.85682617 28.83979492 113.85682617 26.97070312 113.81835938 C24.41606713 113.78315 21.86137336 113.75191186 19.30664062 113.72460938 C18.08654297 113.69818359 16.86644531 113.67175781 15.609375 113.64453125 C14.50070068 113.63107666 13.39202637 113.61762207 12.24975586 113.60375977 C8.83826107 113.15456913 6.96295544 112.22994293 4.20703125 110.203125 C0.45889335 104.98250435 0.08137391 100.65091327 0.00170898 94.32324219 C-0.00819061 93.63990814 -0.01809021 92.9565741 -0.02828979 92.25253296 C-0.05978919 90.00172346 -0.08461627 87.75089289 -0.109375 85.5 C-0.12995452 83.93629417 -0.15095126 82.37259378 -0.17234802 80.80889893 C-0.22746561 76.69901949 -0.27692023 72.58909072 -0.32519531 68.47912598 C-0.37548577 64.28291446 -0.43113241 60.08677435 -0.48632812 55.890625 C-0.5937835 47.66151876 -0.69525634 39.43235267 -0.79296875 31.203125 C-41.46987871 30.96060401 -78.47303884 53.11053895 -107.79296875 79.203125 Z M30.20703125 32.203125 C30.20703125 49.363125 30.20703125 66.523125 30.20703125 84.203125 C35.48703125 84.533125 40.76703125 84.863125 46.20703125 85.203125 C58.87799245 88.80434555 68.72023325 95.34626325 75.74609375 106.6875 C81.80341294 118.09367999 83.11313279 130.39935332 79.58203125 142.890625 C75.36251864 155.09339665 68.69604009 163.99184615 57.14453125 170.078125 C48.03545571 174.23509975 40.55152799 174.46423238 30.20703125 175.203125 C30.20703125 190.053125 30.20703125 204.903125 30.20703125 220.203125 C34.46867188 220.24050781 38.7303125 220.27789062 43.12109375 220.31640625 C46.528804 220.35453864 49.93645072 220.39561124 53.34410095 220.4386673 C56.93592179 220.48324623 60.52762817 220.52269795 64.11962891 220.54956055 C67.58226877 220.57565644 71.04447618 220.61610199 74.50684738 220.66631126 C76.46423293 220.69100432 78.42178602 220.70100861 80.37930298 220.71076965 C82.18049088 220.74046089 82.18049088 220.74046089 84.01806641 220.77075195 C85.59692123 220.78740654 85.59692123 220.78740654 87.20767212 220.80439758 C92.00150802 221.44167832 95.251444 223.1700577 98.51953125 226.703125 C101.19530343 230.66723193 101.34453943 233.73122681 101.41796875 238.41015625 C101.44632812 239.63669922 101.4746875 240.86324219 101.50390625 242.12695312 C101.55575132 244.70754124 101.60009241 247.28829165 101.63671875 249.86914062 C101.66765625 251.09955078 101.69859375 252.32996094 101.73046875 253.59765625 C101.76019775 255.28145386 101.76019775 255.28145386 101.79052734 256.99926758 C102.43211795 261.934551 104.08516387 265.19070809 107.76953125 268.515625 C112.26941266 271.63092752 115.82126299 271.81233485 121.20703125 271.203125 C125.63453433 269.85075538 127.82257572 267.78431093 130.375 263.92578125 C133.20785893 257.96777893 132.72725007 251.60727729 132.70703125 245.140625 C132.65836581 229.52713113 132.65836581 229.52713113 137.20703125 224.203125 C142.5099565 221.40476291 146.82721489 220.74191153 152.765625 220.69140625 C153.55477798 220.67345505 154.34393097 220.65550385 155.15699768 220.63700867 C157.65278945 220.58325972 160.14839397 220.54912535 162.64453125 220.515625 C164.34703107 220.4824205 166.04950629 220.44792798 167.75195312 220.41210938 C171.90350989 220.32755434 176.05501455 220.26057588 180.20703125 220.203125 C185.04912848 204.34743988 181.70688633 181.07668157 178.20703125 165.203125 C178.00835449 164.29691406 177.80967773 163.39070312 177.60498047 162.45703125 C167.83712585 119.31750253 145.77621703 81.83377048 108.1640625 57.62109375 C85.86932579 43.71381933 56.737477 32.203125 30.20703125 32.203125 Z M-106.234375 203.63671875 C-110.30224136 208.28405325 -110.91040498 211.57791621 -110.96875 217.59375 C-110.99259766 218.86089844 -111.01644531 220.12804687 -111.04101562 221.43359375 C-111.08749189 224.09801608 -111.1151125 226.76081724 -111.13476562 229.42578125 C-111.4087539 242.00375463 -111.4087539 242.00375463 -115.79296875 247.203125 C-120.13642939 249.81729165 -123.46396201 250.5992487 -128.50390625 250.71484375 C-129.74785156 250.75029297 -130.99179688 250.78574219 -132.2734375 250.82226562 C-133.55863281 250.84482422 -134.84382813 250.86738281 -136.16796875 250.890625 C-137.47636719 250.92478516 -138.78476563 250.95894531 -140.1328125 250.99414062 C-143.352779 251.07640254 -146.57248054 251.14562763 -149.79296875 251.203125 C-148.62135724 257.48831337 -146.82957276 263.08465619 -144.16796875 268.890625 C-143.81460449 269.66954102 -143.46124023 270.44845703 -143.09716797 271.25097656 C-136.74267197 285.01952089 -128.70353619 297.57594518 -119.25 309.41015625 C-104.60706802 327.76195152 -94.57548889 349.21781854 -89.79296875 372.203125 C-89.60677979 373.09153076 -89.42059082 373.97993652 -89.22875977 374.89526367 C-87.66236393 383.18413731 -87.43842703 391.34894654 -87.48046875 399.765625 C-87.48170746 400.81669937 -87.48170746 400.81669937 -87.48297119 401.88900757 C-87.5114155 412.40157525 -88.1454802 422.60751297 -90.32585144 432.9151001 C-90.8719774 435.59012362 -91.36105982 438.27297852 -91.84619141 440.9597168 C-92.11310287 442.43555489 -92.11310287 442.43555489 -92.38540649 443.94120789 C-92.51990204 444.68764053 -92.65439758 445.43407318 -92.79296875 446.203125 C-74.31366415 450.21608996 -55.80849964 454.07539742 -37.265625 457.78271484 C-33.88955388 458.45788735 -30.51459637 459.13847562 -27.13983917 459.82018089 C-23.86865171 460.4799076 -20.59637447 461.13415525 -17.32421875 461.7890625 C-16.12027466 462.03272552 -14.91633057 462.27638855 -13.67590332 462.5274353 C-12.56533569 462.74831818 -11.45476807 462.96920105 -10.31054688 463.19677734 C-9.3379895 463.39185883 -8.36543213 463.58694031 -7.36340332 463.78793335 C-4.56879085 464.30943104 -4.56879085 464.30943104 -0.79296875 464.203125 C-0.79296875 434.833125 -0.79296875 405.463125 -0.79296875 375.203125 C-6.40296875 374.543125 -12.01296875 373.883125 -17.79296875 373.203125 C-31.15801242 368.79136301 -40.33222696 361.85466115 -46.79296875 349.203125 C-52.32236189 336.00195393 -51.76266298 323.41049406 -47.01953125 310.01953125 C-42.29723552 299.25356346 -33.13537354 291.99512718 -22.6875 287.24609375 C-15.52133051 284.51676466 -8.583407 284.2418501 -0.79296875 283.203125 C-0.79296875 272.643125 -0.79296875 262.083125 -0.79296875 251.203125 C-8.15996094 251.14705078 -8.15996094 251.14705078 -15.67578125 251.08984375 C-18.7930034 251.0595565 -21.91016896 251.02840381 -25.02734375 250.99414062 C-29.97165025 250.93987628 -34.91584483 250.88876405 -39.86035156 250.85668945 C-43.84815371 250.83062 -47.83557868 250.7901923 -51.82314682 250.73993874 C-53.34207328 250.72329454 -54.86106495 250.71176503 -56.38006973 250.70551109 C-58.51305638 250.69584292 -60.64508343 250.66775374 -62.77783203 250.63549805 C-63.99028595 250.62439499 -65.20273987 250.61329193 -66.45193481 250.60185242 C-71.03980569 250.05432433 -74.48068698 248.65116005 -77.60546875 245.203125 C-79.87910285 241.37384652 -79.93786602 238.14296617 -80.00390625 233.77734375 C-80.03226562 232.50568359 -80.060625 231.23402344 -80.08984375 229.92382812 C-80.14453917 227.24668241 -80.18603131 224.57012305 -80.22265625 221.89257812 C-80.25359375 220.61705078 -80.28453125 219.34152344 -80.31640625 218.02734375 C-80.34613525 216.28070435 -80.34613525 216.28070435 -80.37646484 214.4987793 C-81.02472208 209.36933941 -82.92151068 206.13683007 -86.41796875 202.390625 C-92.66680886 197.58741208 -100.64638136 198.07901234 -106.234375 203.63671875 Z M30.20703125 251.203125 C30.16835938 256.83761719 30.16835938 256.83761719 30.12890625 262.5859375 C30.09047772 266.22989347 30.04531983 269.87370834 29.99951172 273.51757812 C29.97131193 276.04713183 29.95009252 278.57677349 29.93603516 281.10644531 C29.91459296 284.74590046 29.86793265 288.38429915 29.81640625 292.0234375 C29.81456329 293.71595139 29.81456329 293.71595139 29.81268311 295.44265747 C29.70069737 301.46626585 29.52260343 305.59941564 25.20703125 310.203125 C21.43795921 313.16780523 18.61136725 313.57108508 13.875 313.57421875 C12.05838867 313.60032227 12.05838867 313.60032227 10.20507812 313.62695312 C7.6764432 313.63602562 5.14779148 313.64126998 2.61914062 313.64257812 C-5.93602097 313.774196 -11.67604596 314.5084507 -18.23046875 320.390625 C-20.39500003 324.28678131 -20.98160197 327.76238463 -20.79296875 332.203125 C-19.06519727 337.48807306 -16.12150186 339.97974928 -11.79296875 343.203125 C-8.99239613 344.60341131 -6.62986263 344.34868809 -3.5 344.37890625 C-2.22962891 344.40275391 -0.95925781 344.42660156 0.34960938 344.45117188 C3.0270462 344.49758641 5.70288829 344.52524056 8.38085938 344.54492188 C20.86845757 344.81598029 20.86845757 344.81598029 26.20703125 349.203125 C30.3042207 354.02116449 29.64739922 359.51622619 29.6394043 365.51098633 C29.65469177 367.22383316 29.65469177 367.22383316 29.67028809 368.97128296 C29.70046286 372.74262368 29.70969119 376.51371058 29.71875 380.28515625 C29.7355933 382.90118761 29.75374306 385.51721087 29.77314758 388.13322449 C29.816785 394.31311734 29.8453488 400.49298387 29.86847097 406.67298383 C29.89553751 413.7105288 29.93944806 420.74793731 29.98475969 427.78538477 C30.07756633 442.25788483 30.14926527 456.7304432 30.20703125 471.203125 C35.13589763 472.20372479 40.06550855 473.20053959 44.99584961 474.19384766 C46.67314343 474.53232448 48.35022872 474.87183641 50.02709961 475.21240234 C52.43679655 475.70161575 54.84721781 476.18710725 57.2578125 476.671875 C58.00791092 476.82499146 58.75800934 476.97810791 59.53083801 477.13586426 C62.47754555 477.7253964 65.19335272 478.203125 68.20703125 478.203125 C68.41457031 476.945 68.62210937 475.686875 68.8359375 474.390625 C71.40839737 459.74916065 75.11041339 441.65539056 87.83203125 432.265625 C91.50492381 430.62248886 94.68093609 430.07955585 98.69335938 430.07714844 C99.57527954 430.07334167 100.45719971 430.06953491 101.36584473 430.06561279 C102.78770081 430.06407196 102.78770081 430.06407196 104.23828125 430.0625 C106.26693819 430.04415854 108.29558431 430.02458701 110.32421875 430.00390625 C113.50571823 429.97507238 116.6865259 429.95312817 119.86816406 429.95263672 C136.01730612 429.93499014 149.06232524 429.13763417 161.20703125 417.203125 C172.21670009 404.81724755 173.75616511 387.30617917 176.7824707 371.60424805 C177.28262796 369.02244535 177.79322874 366.44286501 178.3046875 363.86328125 C178.45164566 363.08195328 178.59860382 362.30062531 178.75001526 361.49562073 C179.65251343 356.96316295 180.9729967 353.29828828 183.20703125 349.203125 C183.53703125 348.213125 183.86703125 347.223125 184.20703125 346.203125 C186.03515625 345.1809082 186.03515625 345.1809082 188.20703125 344.203125 C190.94525769 342.36337911 193.56710712 340.36817686 196.20703125 338.390625 C196.91859375 337.86919922 197.63015625 337.34777344 198.36328125 336.81054688 C205.08970403 331.97931823 205.08970403 331.97931823 208.79296875 324.8359375 C207.89268568 320.79066557 205.42840249 318.23324381 202.83203125 315.078125 C187.6411003 295.65606435 181.45868863 275.28653858 178.20703125 251.203125 C173.25703125 251.203125 168.30703125 251.203125 163.20703125 251.203125 C162.83578125 254.8228125 162.83578125 254.8228125 162.45703125 258.515625 C160.8674354 271.83608712 156.47955345 283.3993139 145.76953125 292.078125 C134.09452542 300.5023652 122.33864887 302.44174022 108.20703125 301.203125 C96.32004307 298.98013841 86.16168045 292.04963088 79.20703125 282.203125 C72.97206497 271.80598708 72.15970314 263.58785957 71.20703125 251.203125 C57.67703125 251.203125 44.14703125 251.203125 30.20703125 251.203125 Z " fill="#000000" transform="translate(230.79296875,-0.203125)"/>
</svg>
